<svg xmlns="http://www.w3.org/2000/svg" width="260" height="56" viewBox="0 0 260 56" role="img">
  <title>HostLedger</title>
  <desc>HostLedger wordmark with icon — dark variant</desc>

  <rect x="0" y="4" width="48" height="48" rx="12" fill="#0F6E56"/>
  <path d="M8 26 L24 14 L40 26 L40 46 L8 46 Z" fill="#04342C"/>
  <path d="M10 27 L24 16 L38 27 L38 45 L10 45 Z" fill="#085041"/>
  <rect x="16" y="33" width="16" height="12" rx="2" fill="#04342C"/>
  <rect x="18" y="20" width="12" height="10" rx="2" fill="#5DCAA5"/>
  <rect x="21" y="22" width="2" height="6" fill="#04342C"/>
  <rect x="18" y="26" width="8" height="2" fill="#04342C"/>
  <rect x="10" y="30" width="8"  height="7" rx="1" fill="#5DCAA5"/>
  <rect x="34" y="30" width="8"  height="7" rx="1" fill="#5DCAA5"/>
  <rect x="18" y="36" width="6" height="1.5" fill="#1D9E75"/>
  <rect x="18" y="39" width="6" height="1.5" fill="#1D9E75"/>
  <rect x="26" y="36" width="6" height="1.5" fill="#1D9E75"/>
  <rect x="26" y="39" width="4" height="1.5" fill="#1D9E75"/>

  <text x="62" y="37"
    font-family="system-ui, -apple-system, BlinkMacSystemFont, 'Segoe UI', sans-serif"
    font-size="28" font-weight="600" fill="#0F6E56" letter-spacing="-0.5">Host</text>
  <text x="131" y="37"
    font-family="system-ui, -apple-system, BlinkMacSystemFont, 'Segoe UI', sans-serif"
    font-size="28" font-weight="400" fill="#0F6E56" letter-spacing="-0.5">Ledger</text>
</svg>
